<svg xmlns="http://www.w3.org/2000/svg" id="Layer_1" data-name="Layer 1" viewBox="0 0 656.91 134.68"><defs><style>      .cls-1 {        fill: #fff;        stroke-width: 0px;      }    </style></defs><g><path class="cls-1" d="M.33,5.48l-.33-.29v-2.08l.33-.29c4.73.22,8.39.33,10.96.33.97,0,4.8-.11,11.5-.33,2.16-.05,3.72-.08,4.69-.08,3.74,0,6.7.37,8.89,1.12,2.19.75,3.94,2.07,5.27,3.97,1.33,1.9,1.99,4.05,1.99,6.46,0,3.07-1.11,5.92-3.32,8.55-2.21,2.63-5.81,4.51-10.79,5.65,2.99.28,5.45.68,7.39,1.2,1.94.52,3.61,1.34,5.02,2.43,1.41,1.09,2.53,2.51,3.34,4.26.82,1.74,1.22,3.76,1.22,6.06,0,1.8-.28,3.63-.83,5.48-.55,1.85-1.57,3.7-3.05,5.52-1.48,1.83-3.27,3.39-5.38,4.69-2.1,1.3-4.26,2.24-6.46,2.82s-4.93.87-8.2.87c-.66,0-2.66-.07-5.98-.21-3.68-.08-5.67-.12-5.98-.12-1.88,0-4.19.11-6.93.33l-.33-.33v-1.37l.33-.41c1.6-.72,2.53-1.22,2.78-1.49s.45-2.73.6-7.35c.15-4.62.23-8.15.23-10.59v-15.24l-.04-9.43c0-2.05-.03-3.72-.08-5-.06-1.29-.13-2.21-.23-2.76s-.26-.94-.48-1.16c-.22-.22-.53-.41-.93-.56-.4-.15-1.09-.28-2.06-.39l-3.16-.25ZM15.24,27.28c1.38.11,2.95.17,4.69.17,5.73,0,9.72-1.02,11.96-3.07s3.36-4.86,3.36-8.43c0-2.08-.43-3.84-1.29-5.29-.86-1.45-2.21-2.57-4.05-3.34-1.84-.77-4.34-1.16-7.49-1.16-2.57,0-4.84.21-6.81.62-.25,2.49-.37,6.84-.37,13.04v7.47ZM15.32,57.54c2.13.5,4.32.75,6.56.75,3.96,0,7.06-.64,9.3-1.91,2.24-1.27,3.9-3.04,4.96-5.29,1.07-2.26,1.6-4.71,1.6-7.37,0-3.98-1.13-7.18-3.38-9.57-2.26-2.39-7.13-3.59-14.64-3.59-1.25,0-2.74.06-4.48.17v14.16l.08,12.66Z"></path><path class="cls-1" d="M52.11,3.11l.33-.29c9.49.17,15.57.25,18.23.25,9.08,0,17.16-.08,24.25-.25l.21.29c-.69,2.66-1.2,6.82-1.54,12.5l-.25.33h-2.03l-.37-.33c.03-.25.04-.47.04-.66,0-2.35-.18-4.59-.54-6.72-1.74-.77-4.16-1.28-7.25-1.52-3.09-.23-5.4-.35-6.95-.35-2.19,0-4.98.15-8.39.46l-.17,6.64-.12,7.6-.12,8.43c2.99.17,5.74.25,8.26.25s4.68-.08,6.39-.25c1.72-.16,2.72-.34,3.01-.52.29-.18.51-.52.66-1.04.15-.51.28-1.42.39-2.72l.17-2.57.33-.33h1.91l.33.33c-.06,3.02-.12,6.05-.21,9.09l.21,9.34-.33.33h-1.91l-.33-.33-.29-2.49c-.25-1.94-.43-3.09-.54-3.47-.11-.37-.37-.7-.77-.98-.4-.28-1.43-.5-3.09-.66-1.66-.17-3.94-.25-6.85-.25-1.61,0-4.05.07-7.35.21-.14,2.32-.21,6.2-.21,11.63,0,5.81.07,10.09.21,12.83h7.64c6.73,0,10.93-.08,12.62-.25s3.29-.57,4.82-1.2c.25-.64.66-2.11,1.22-4.42.57-2.31.89-3.76.98-4.34l.42-.29h1.99l.33.29c-.25,1.19-.49,3.27-.73,6.23-.24,2.96-.35,5.49-.35,7.6l-.29.33c-5.29-.17-12.21-.25-20.76-.25l-11.29-.08c-2.63,0-5.37.11-8.22.33l-.33-.33v-1.37l.33-.41c1.63-.83,2.57-1.35,2.8-1.56s.43-2.63.58-7.27c.15-4.64.23-8.17.23-10.61v-15.24l-.04-9.43c0-2.05-.03-3.72-.08-5-.06-1.29-.15-2.21-.29-2.76-.14-.55-.3-.94-.48-1.16-.18-.22-.47-.41-.87-.56-.4-.15-1.09-.28-2.06-.39l-3.16-.25-.33-.29v-2.08Z"></path><path class="cls-1" d="M104.54,61.82l-.37-.33v-2.16l.37-.33c2.02-.03,3.32-.13,3.9-.31.58-.18,1.1-.54,1.56-1.08.46-.54,1.38-2.3,2.76-5.29l4.36-9.47,11.29-25.58c2.13-5.01,4.25-10.02,6.35-15.03h2.7l17.73,41.68,2.37,5.56c.69,1.58,1.49,3.29,2.39,5.15s1.52,2.95,1.87,3.28c.35.33.77.59,1.29.77.51.18,1.65.28,3.43.31l.33.33v2.16l-.33.33c-2.93-.25-5.58-.37-7.93-.37-4.6.14-9.19.26-13.78.37l-.33-.33v-2.16l.33-.33c3.1-.05,5.04-.19,5.81-.39.77-.21,1.16-.69,1.16-1.43,0-.61-.19-1.41-.58-2.41l-5.11-12.66h-24.04l-4.53,10.63c-.8,1.91-1.2,3.31-1.2,4.19,0,.69.37,1.2,1.12,1.54.75.33,2.63.51,5.65.54l.37.33v2.16l-.33.33c-3.57-.22-6.7-.33-9.38-.33-3.05,0-6.12.11-9.22.33ZM123.48,38.53h21.01l-10.42-25.04-10.59,25.04Z"></path><path class="cls-1" d="M223.37,54.47l-1.58,3.86c-6.14,3.13-12.7,4.69-19.68,4.69-9.99,0-18.11-2.84-24.35-8.51-6.24-5.67-9.36-13.09-9.36-22.25,0-6.31,1.56-11.82,4.67-16.55,3.11-4.72,7.22-8.25,12.33-10.59,5.11-2.34,10.84-3.51,17.21-3.51,3.68,0,7.32.39,10.92,1.16,3.6.77,6.6,1.7,9.01,2.78l.29.42c-.64,1.55-1.23,5.38-1.79,11.5l-.29.33h-1.95l-.33-.33-.42-7.06c-2.02-1.61-4.46-2.86-7.33-3.76-2.86-.9-5.85-1.35-8.95-1.35-4.68,0-8.87,1-12.58,3.01-3.71,2.01-6.59,4.91-8.64,8.72-2.05,3.81-3.07,8.46-3.07,13.97s1.2,10.39,3.61,14.57c2.41,4.18,5.69,7.39,9.86,9.63,4.17,2.24,9.03,3.36,14.59,3.36,2.46,0,4.83-.23,7.1-.71,2.27-.47,4.16-1.05,5.67-1.74s2.95-1.54,4.34-2.53l.71.87Z"></path><path class="cls-1" d="M248.74,3.11l.33-.29c5.07.22,9.01.33,11.83.33,3.13,0,7.35-.1,12.66-.29,1.97-.05,3.39-.08,4.28-.08,7,0,11.75,1.27,14.24,3.82,2.49,2.55,3.74,5.56,3.74,9.05,0,2.33-.61,4.61-1.83,6.85-1.22,2.24-3.02,4.16-5.4,5.75-2.38,1.59-5.66,2.79-9.84,3.59.77,1.08,2.17,2.95,4.19,5.6l5.9,7.81c1.91,2.57,3.96,5.29,6.14,8.16,2.19,2.87,3.6,4.48,4.24,4.86.64.37,1.18.6,1.64.69.46.08,1.18.12,2.18.12l.33.33v1.95l-.37.37c-1.33-.17-2.91-.25-4.73-.25-1.97,0-4.11.08-6.44.25-1.91-2.33-4.91-6.35-9.01-12.08-4.76-6.64-9.63-12.8-14.61-18.48l.42-1.29c1.44.08,2.56.12,3.36.12,4.79,0,8.54-1.15,11.25-3.45,2.71-2.3,4.07-5.48,4.07-9.55,0-3.65-1.22-6.41-3.65-8.28s-5.73-2.8-9.88-2.8c-2.91,0-5.65.4-8.22,1.2-.42.61-.62,5.8-.62,15.57v19.22l.04,8.1c.03,3.13.11,5.15.25,6.06.14.91.34,1.52.6,1.83.26.3.77.56,1.52.77.75.21,2.59.37,5.52.48l.33.25v2.08l-.33.33c-.14,0-2.57-.08-7.31-.25-1.97-.06-3.5-.08-4.61-.08-.86,0-4.82.11-11.87.33l-.33-.33v-2.08l.33-.25c2.57-.11,4.29-.25,5.15-.41s1.43-.38,1.72-.64c.29-.26.53-.82.71-1.68s.28-2.77.31-5.73l.04-8.76v-19.22l-.08-8.1c-.03-3.16-.1-5.19-.23-6.1-.12-.91-.32-1.52-.58-1.83-.26-.3-.77-.55-1.52-.75s-2.59-.34-5.52-.46l-.33-.29v-2.08Z"></path><path class="cls-1" d="M340.5,55.39l-1.33,2.99c-2.88,1.85-5.44,3.06-7.7,3.61-2.26.55-4.27.83-6.04.83-3.32,0-6.47-.65-9.45-1.95-2.98-1.3-5.4-3.5-7.27-6.6-1.87-3.1-2.8-6.84-2.8-11.21,0-2.91.36-5.53,1.08-7.87.72-2.34,1.47-4.08,2.26-5.21.79-1.13,2.12-2.39,4.01-3.78,1.88-1.38,3.87-2.49,5.98-3.32,2.1-.83,4.37-1.25,6.81-1.25,3.32,0,6.25.78,8.78,2.34,2.53,1.56,4.31,3.56,5.34,6,1.02,2.44,1.53,5.02,1.53,7.76,0,.86-.04,1.69-.12,2.49l-.46.46c-1.88.41-4.41.69-7.6.83-3.18.14-5.29.21-6.31.21h-13.33c.06,5.73,1.49,9.95,4.32,12.66,2.82,2.71,6.28,4.07,10.38,4.07,1.94,0,3.8-.33,5.58-1s3.67-1.59,5.67-2.78l.67.71ZM313.88,38.4c.5.08,2.41.18,5.75.29,3.34.11,5.81.17,7.41.17,3.85,0,6.19-.07,7.02-.21.03-.66.04-1.18.04-1.54,0-4.29-.87-7.48-2.62-9.57-1.74-2.09-4.12-3.13-7.14-3.13-3.29,0-5.86,1.18-7.7,3.53-1.84,2.35-2.76,5.84-2.76,10.46Z"></path><path class="cls-1" d="M353.33,33.34l-1.62-.42-.33-.41v-5.15c4.93-3.65,9.72-5.48,14.36-5.48,3.18,0,5.83.6,7.93,1.79,2.1,1.19,3.63,2.68,4.57,4.46.94,1.79,1.41,3.87,1.41,6.25l-.21,8.35v12.37c0,1.69.12,2.71.35,3.07.23.36.5.6.81.73.3.12.87.23,1.7.31l2.37.21.33.37v1.66l-.33.33c-2.02-.17-3.9-.25-5.65-.25s-3.65.08-5.98.25l-.62-.58.16-6.68-9.05,7.06c-1.52.64-3.18.95-4.98.95-2.21,0-4.12-.4-5.71-1.2-1.59-.8-2.81-1.92-3.65-3.36-.84-1.44-1.27-3.18-1.27-5.23,0-4.07,1.27-7.25,3.82-9.53,2.55-2.28,9.49-4.23,20.84-5.83,0-4.1-.91-6.98-2.74-8.66-1.83-1.67-4.28-2.51-7.35-2.51-1.61,0-3.07.24-4.38.71-1.32.47-2.07.85-2.26,1.14s-.94,1.99-2.24,5.08l-.29.21ZM372.59,39.9c-7.75,1.3-12.58,2.7-14.49,4.19-1.91,1.49-2.87,3.81-2.87,6.93,0,4.32,2.15,6.48,6.44,6.48,3.68,0,7.32-2.13,10.92-6.39v-11.21Z"></path><path class="cls-1" d="M402.57,0l.79.5c-.3,3.18-.46,9.56-.46,19.14v26.03c0,.61.06,2.57.17,5.87.11,3.31.23,5.24.35,5.79.13.55.31.95.56,1.2s.55.41.91.48c.36.07,1.85.19,4.48.35l.37.33v1.74l-.33.37c-3.46-.22-6.8-.33-10.01-.33s-6.51.11-9.96.33l-.37-.37v-1.74l.37-.33c2.68-.16,4.2-.29,4.55-.37.34-.08.65-.26.91-.52.26-.26.44-.66.54-1.2.1-.54.21-2.33.33-5.36.12-3.03.19-5.32.19-6.87v-21.51l-.17-8.8c-.08-3.07-.17-5.2-.27-6.39s-.23-1.9-.39-2.12c-.16-.22-.46-.39-.87-.5-.41-.11-2.09-.17-5.02-.17l-.37-.37v-1.74l.33-.37c5.29-.61,9.74-1.63,13.37-3.07Z"></path><path class="cls-1" d="M436.07,3.11l.33-.29c9.49.17,15.57.25,18.23.25,9.08,0,17.16-.08,24.25-.25l.21.29c-.69,2.66-1.2,6.82-1.54,12.5l-.25.33h-2.03l-.37-.33c.03-.25.04-.47.04-.66,0-2.35-.18-4.59-.54-6.72-1.74-.77-4.16-1.28-7.25-1.52-3.09-.23-5.4-.35-6.95-.35-2.19,0-4.98.15-8.39.46l-.17,6.64-.12,7.6-.12,8.43c2.99.17,5.74.25,8.26.25s4.68-.08,6.39-.25c1.72-.16,2.72-.34,3.01-.52.29-.18.51-.52.66-1.04.15-.51.28-1.42.39-2.72l.16-2.57.33-.33h1.91l.33.33c-.06,3.02-.12,6.05-.21,9.09l.21,9.34-.33.33h-1.91l-.33-.33-.29-2.49c-.25-1.94-.43-3.09-.54-3.47-.11-.37-.37-.7-.77-.98-.4-.28-1.43-.5-3.09-.66-1.66-.17-3.94-.25-6.85-.25-1.61,0-4.05.07-7.35.21-.14,2.32-.21,6.2-.21,11.63,0,5.81.07,10.09.21,12.83h7.64c6.73,0,10.93-.08,12.62-.25s3.29-.57,4.82-1.2c.25-.64.66-2.11,1.23-4.42.57-2.31.89-3.76.98-4.34l.41-.29h1.99l.33.29c-.25,1.19-.49,3.27-.73,6.23-.24,2.96-.35,5.49-.35,7.6l-.29.33c-5.29-.17-12.21-.25-20.76-.25l-11.29-.08c-2.63,0-5.37.11-8.22.33l-.33-.33v-1.37l.33-.41c1.63-.83,2.57-1.35,2.8-1.56s.43-2.63.58-7.27c.15-4.64.23-8.17.23-10.61v-15.24l-.04-9.43c0-2.05-.03-3.72-.08-5-.06-1.29-.15-2.21-.29-2.76-.14-.55-.3-.94-.48-1.16-.18-.22-.47-.41-.87-.56-.4-.15-1.09-.28-2.05-.39l-3.16-.25-.33-.29v-2.08Z"></path><path class="cls-1" d="M489.18,49.28h1.79l.37.37c.05,2.33.19,4.32.41,5.98.86,1.3,2.34,2.36,4.44,3.18,2.1.82,4.18,1.22,6.23,1.22,2.93,0,5.28-.79,7.04-2.37,1.76-1.58,2.64-3.46,2.64-5.65,0-1.19-.32-2.22-.95-3.09-.64-.87-1.6-1.59-2.89-2.16-1.29-.57-3.59-1.24-6.91-2.01-2.85-.66-4.84-1.18-5.98-1.56-1.14-.37-2.23-1-3.28-1.89-1.05-.89-1.85-1.97-2.41-3.26-.55-1.29-.83-2.71-.83-4.26,0-3.71,1.47-6.68,4.42-8.9,2.95-2.23,6.62-3.34,11.02-3.34,1.85,0,3.87.26,6.06.77,2.19.51,3.85,1,4.98,1.48l.37.58c-.22,1.11-.36,4.01-.42,8.72l-.37.37h-1.66l-.37-.37c-.11-1.69-.26-2.87-.46-3.55-.19-.68-.69-1.41-1.49-2.2-.8-.79-1.94-1.45-3.4-1.99-1.47-.54-3.02-.81-4.65-.81s-3.11.25-4.26.75c-1.15.5-2.08,1.25-2.78,2.26-.71,1.01-1.06,2.24-1.06,3.67,0,1.05.21,1.99.64,2.82.43.83,1.09,1.5,1.97,2.01.89.51,1.81.88,2.78,1.1l4.53,1.16c3.88.94,6.65,1.76,8.33,2.45,1.67.69,2.97,1.74,3.88,3.13.91,1.4,1.37,3.09,1.37,5.09,0,3.82-1.58,7.1-4.73,9.84-3.16,2.74-7.21,4.11-12.17,4.11-1.74,0-3.91-.2-6.5-.58-2.59-.39-4.8-.82-6.62-1.29l-.21-.54.41-2.78c.14-.86.22-1.72.25-2.59.03-.87.05-2.71.08-5.5l.37-.37Z"></path><path class="cls-1" d="M522.93,28.9v-1.08l.29-.42c2.6-.97,4.71-1.87,6.31-2.7,0-7.22-.08-11.43-.25-12.62,2.85-1,5.19-2.06,7.02-3.2l1,.83c-.28,1.74-.61,6.81-1,15.2,1.38.03,2.88.04,4.48.04,3.26,0,5.61-.08,7.02-.25l.29.29-.79,3.49-.33.37c-1.41-.03-2.98-.04-4.69-.04-1.55,0-3.54.02-5.98.04l-.25,16.9c0,3.9.09,6.46.27,7.66s.68,2.15,1.49,2.82c.82.68,2.03,1.02,3.63,1.02,1.85,0,3.57-.48,5.15-1.45l1,1.49c-.67.47-2.26,1.85-4.77,4.15-1.44.66-2.91,1-4.4,1-6.23,0-9.34-3.02-9.34-9.05,0-2.21.05-4.1.17-5.65.03-.47.04-.95.04-1.45v-17.23h-1.7c-1.25,0-2.67.06-4.28.17l-.37-.33Z"></path><path class="cls-1" d="M557.56,33.34l-1.62-.42-.33-.41v-5.15c4.93-3.65,9.72-5.48,14.36-5.48,3.18,0,5.83.6,7.93,1.79,2.1,1.19,3.63,2.68,4.57,4.46.94,1.79,1.41,3.87,1.41,6.25l-.21,8.35v12.37c0,1.69.12,2.71.35,3.07.23.36.5.6.81.73.3.12.87.23,1.7.31l2.37.21.33.37v1.66l-.33.33c-2.02-.17-3.9-.25-5.65-.25s-3.65.08-5.98.25l-.62-.58.16-6.68-9.05,7.06c-1.52.64-3.18.95-4.98.95-2.21,0-4.12-.4-5.71-1.2-1.59-.8-2.81-1.92-3.65-3.36-.84-1.44-1.27-3.18-1.27-5.23,0-4.07,1.27-7.25,3.82-9.53,2.55-2.28,9.49-4.23,20.84-5.83,0-4.1-.91-6.98-2.74-8.66-1.83-1.67-4.28-2.51-7.35-2.51-1.61,0-3.07.24-4.38.71-1.32.47-2.07.85-2.26,1.14s-.94,1.99-2.24,5.08l-.29.21ZM576.82,39.9c-7.75,1.3-12.58,2.7-14.49,4.19-1.91,1.49-2.87,3.81-2.87,6.93,0,4.32,2.15,6.48,6.44,6.48,3.68,0,7.32-2.13,10.92-6.39v-11.21Z"></path><path class="cls-1" d="M593.18,28.9v-1.08l.29-.42c2.6-.97,4.71-1.87,6.31-2.7,0-7.22-.08-11.43-.25-12.62,2.85-1,5.19-2.06,7.02-3.2l1,.83c-.28,1.74-.61,6.81-1,15.2,1.38.03,2.88.04,4.48.04,3.26,0,5.61-.08,7.02-.25l.29.29-.79,3.49-.33.37c-1.41-.03-2.98-.04-4.69-.04-1.55,0-3.54.02-5.98.04l-.25,16.9c0,3.9.09,6.46.27,7.66s.68,2.15,1.49,2.82c.82.68,2.03,1.02,3.63,1.02,1.85,0,3.57-.48,5.15-1.45l1,1.49c-.67.47-2.26,1.85-4.77,4.15-1.44.66-2.91,1-4.4,1-6.23,0-9.34-3.02-9.34-9.05,0-2.21.05-4.1.17-5.65.03-.47.04-.95.04-1.45v-17.23h-1.7c-1.25,0-2.67.06-4.28.17l-.37-.33Z"></path><path class="cls-1" d="M655.71,55.39l-1.33,2.99c-2.88,1.85-5.44,3.06-7.7,3.61-2.26.55-4.27.83-6.04.83-3.32,0-6.47-.65-9.45-1.95-2.98-1.3-5.4-3.5-7.27-6.6s-2.8-6.84-2.8-11.21c0-2.91.36-5.53,1.08-7.87s1.47-4.08,2.26-5.21c.79-1.13,2.12-2.39,4.01-3.78,1.88-1.38,3.87-2.49,5.98-3.32,2.1-.83,4.37-1.25,6.81-1.25,3.32,0,6.25.78,8.78,2.34,2.53,1.56,4.31,3.56,5.33,6,1.02,2.44,1.54,5.02,1.54,7.76,0,.86-.04,1.69-.12,2.49l-.46.46c-1.88.41-4.41.69-7.6.83-3.18.14-5.29.21-6.31.21h-13.33c.05,5.73,1.49,9.95,4.32,12.66s6.28,4.07,10.38,4.07c1.94,0,3.8-.33,5.59-1s3.67-1.59,5.67-2.78l.66.71ZM629.09,38.4c.5.08,2.41.18,5.75.29,3.33.11,5.8.17,7.41.17,3.85,0,6.19-.07,7.02-.21.03-.66.04-1.18.04-1.54,0-4.29-.87-7.48-2.61-9.57-1.74-2.09-4.13-3.13-7.14-3.13-3.29,0-5.86,1.18-7.7,3.53-1.84,2.35-2.76,5.84-2.76,10.46Z"></path></g><g><path class="cls-1" d="M143.31,133.47c-.75-.53-1.37-1.2-1.86-2.01-.49-.81-.74-1.56-.74-2.27,0-1.22.33-2.18.97-2.89s1.72-1.38,3.21-2.01l6.02-2.48c.75-.31,1.2-.59,1.36-.83.16-.24.25-.75.29-1.53l.12-3.78c.04-1.06-.26-1.96-.88-2.68-.63-.73-1.5-1.09-2.6-1.09-.59,0-1.18.1-1.77.29-.59.2-1.08.45-1.48.77-.39.28-.59.85-.59,1.71l.06,1.06c0,.32-.5.74-1.5,1.27-1,.53-1.8.8-2.39.8-.2,0-.35-.05-.47-.15-.12-.1-.18-.23-.18-.38,0-.63.21-1.31.62-2.04.41-.73.99-1.41,1.74-2.04,1.34-1.22,2.84-2.22,4.51-3.01,1.67-.79,3.1-1.18,4.28-1.18,1.42,0,2.59.5,3.51,1.5.92,1,1.37,2.25,1.33,3.75l-.29,14.16c-.04.83.14,1.5.53,2.01.39.51.92.77,1.59.77.98,0,1.71-.22,2.18-.65.2-.2.35-.29.47-.29.2,0,.35.06.47.18.12.12.18.28.18.47,0,.16-.06.36-.18.62-.12.26-.28.48-.47.68-.63.63-1.31,1.13-2.04,1.5-.73.37-1.41.56-2.04.56-1.81,0-3.25-1.02-4.31-3.07h-.18c-1.3,1.06-2.54,1.84-3.72,2.33-1.18.49-2.4.74-3.66.74-.67,0-1.38-.27-2.12-.8ZM151.68,130.02c.24-.24.41-.53.53-.88.12-.35.2-.86.24-1.53l.12-2.89v-.35c0-.31-.04-.54-.12-.68-.08-.14-.22-.21-.41-.21-.24,0-.63.1-1.18.3-1.97.71-3.38,1.46-4.25,2.24-.86.79-1.3,1.55-1.3,2.3,0,.98.29,1.75.86,2.3s1.25.83,2.04.83c1.38,0,2.54-.47,3.48-1.42Z"></path><path class="cls-1" d="M164.66,132.97c0-.27.1-.46.29-.56.2-.1.55-.23,1.06-.38.82-.2,1.45-.44,1.89-.74.43-.29.65-.8.65-1.5v-12.68c0-1.26-.14-2.22-.41-2.89-.28-.67-.86-1.12-1.77-1.36-.39-.12-.59-.37-.59-.77,0-.43.18-.67.53-.71,1.22-.31,2.25-.71,3.1-1.18.85-.47,1.78-1.08,2.8-1.83.27-.2.49-.29.65-.29.2,0,.29.14.29.41l-.12,1.24c-.04.32-.08.7-.12,1.15-.04.45-.06.91-.06,1.39,0,.39.04.63.12.71,1.42-1.34,2.89-2.33,4.42-2.98s3.22-.97,5.07-.97,3.47.79,4.75,2.36c1.28,1.57,1.92,3.52,1.92,5.84v12.57c0,.71.21,1.19.62,1.45.41.26,1.05.52,1.92.8.47.16.82.31,1.03.44.22.14.33.35.33.62,0,.35-.39.53-1.18.53-1.06,0-1.91-.06-2.54-.18-.79-.08-1.51-.12-2.18-.12-.63,0-1.38.04-2.24.12-.63.12-1.5.18-2.6.18-.79,0-1.18-.18-1.18-.53,0-.27.11-.48.32-.62.22-.14.56-.28,1.03-.44.86-.27,1.5-.54,1.92-.8.41-.26.62-.74.62-1.45v-12.39c0-1.69-.48-3.03-1.44-4.01-.96-.98-2.25-1.49-3.86-1.53-2.44,0-4.62.79-6.55,2.36-.32.31-.47.77-.47,1.36v14.22c0,.71.21,1.21.65,1.5.43.29,1.06.54,1.89.74.47.12.82.25,1.03.38.22.14.32.32.32.56,0,.43-.39.65-1.18.65-1.02,0-1.87-.06-2.54-.18-.87-.08-1.61-.12-2.24-.12s-1.38.04-2.24.12c-.63.12-1.48.18-2.54.18-.79,0-1.18-.22-1.18-.65Z"></path><path class="cls-1" d="M216.25,134.33c-.18-.16-.27-.28-.27-.35l.12-1.53c.12-.71.18-1.38.18-2.01v-.35c-.71,1.1-1.73,2.08-3.07,2.92-1.34.84-2.89,1.27-4.66,1.27-2.16,0-4.07-.57-5.72-1.71-1.65-1.14-2.93-2.64-3.83-4.51-.9-1.87-1.36-3.8-1.36-5.81,0-2.32.54-4.49,1.62-6.52,1.08-2.03,2.63-3.65,4.63-4.87,2.01-1.22,4.35-1.83,7.02-1.83.75,0,1.51.07,2.3.21.79.14,1.44.29,1.95.44.35.12.61.18.77.18.12,0,.22-.12.29-.35s.12-.59.12-1.06v-8.38c0-1.49-.24-2.54-.71-3.13s-1.22-.98-2.24-1.18c-.35-.08-.53-.33-.53-.77,0-.35.16-.59.47-.71,2.08-.51,3.64-.99,4.66-1.44,1.02-.45,1.59-.7,1.71-.74.31-.12.57-.18.77-.18.24,0,.37.12.41.35,0,.24-.07.98-.21,2.24-.14,1.26-.21,3.19-.21,5.78v26.67c0,1.38.1,2.36.29,2.95.2.59.51.88.94.88.67,0,1.51-.06,2.54-.18h.29c.51,0,.77.18.77.53,0,.28-.09.52-.27.74-.18.22-.36.32-.56.32-2.12.28-4.42.94-6.9,2.01-.43.24-.75.35-.94.35-.08,0-.21-.08-.38-.24ZM213.68,130.4c.98-.53,1.85-1.23,2.6-2.09l.06-10.62c0-1.06-.3-2.1-.91-3.13-.61-1.02-1.48-1.86-2.6-2.51s-2.37-.97-3.75-.97c-1.06,0-2.14.29-3.25.88s-2.05,1.61-2.83,3.07c-.79,1.46-1.18,3.4-1.18,5.84,0,2.71.51,4.84,1.53,6.37s2.2,2.58,3.54,3.13c1.34.55,2.59.83,3.78.83,1.02,0,2.02-.27,3.01-.8Z"></path><path class="cls-1" d="M241,132.97c0-.27.11-.47.33-.59.21-.12.56-.24,1.03-.35.9-.24,1.55-.5,1.95-.8s.59-.78.59-1.45v-12.8c0-2.6-.89-4.03-2.66-4.31-.39-.04-.59-.29-.59-.77,0-.43.18-.67.53-.71,2.4-.55,4.46-1.53,6.19-2.95.35-.27.63-.41.83-.41.24,0,.35.1.35.29,0,.43-.06,1.18-.18,2.24-.04.47-.11,1.35-.21,2.63-.1,1.28-.15,2.31-.15,3.1v13.69c0,.63.21,1.1.62,1.42.41.32,1.05.59,1.92.83.47.12.82.24,1.03.35.22.12.32.32.32.59,0,.43-.39.65-1.18.65-.98,0-1.81-.06-2.48-.18-.86-.08-1.63-.12-2.3-.12-.63,0-1.38.04-2.24.12-.63.12-1.48.18-2.54.18-.79,0-1.18-.22-1.18-.65ZM244.8,102.15c-.57-.57-.86-1.27-.86-2.09s.28-1.58.86-2.15c.57-.57,1.27-.86,2.09-.86s1.58.29,2.15.86c.57.57.86,1.29.86,2.15s-.29,1.52-.86,2.09c-.57.57-1.29.86-2.15.86s-1.52-.29-2.09-.86Z"></path><path class="cls-1" d="M256.63,132.97c0-.27.1-.46.29-.56.2-.1.55-.23,1.06-.38.82-.2,1.45-.44,1.89-.74.43-.29.65-.8.65-1.5v-12.68c0-1.26-.14-2.22-.41-2.89-.28-.67-.86-1.12-1.77-1.36-.39-.12-.59-.37-.59-.77,0-.43.18-.67.53-.71,1.22-.31,2.25-.71,3.1-1.18.85-.47,1.78-1.08,2.8-1.83.27-.2.49-.29.65-.29.2,0,.29.14.29.41l-.12,1.24c-.04.32-.08.7-.12,1.15-.04.45-.06.91-.06,1.39,0,.39.04.63.12.71,1.42-1.34,2.89-2.33,4.42-2.98s3.22-.97,5.07-.97,3.47.79,4.75,2.36c1.28,1.57,1.92,3.52,1.92,5.84v12.57c0,.71.21,1.19.62,1.45.41.26,1.05.52,1.92.8.47.16.82.31,1.03.44.22.14.33.35.33.62,0,.35-.39.53-1.18.53-1.06,0-1.91-.06-2.54-.18-.79-.08-1.51-.12-2.18-.12-.63,0-1.38.04-2.24.12-.63.12-1.5.18-2.6.18-.79,0-1.18-.18-1.18-.53,0-.27.11-.48.32-.62.22-.14.56-.28,1.03-.44.86-.27,1.5-.54,1.92-.8.41-.26.62-.74.62-1.45v-12.39c0-1.69-.48-3.03-1.44-4.01-.96-.98-2.25-1.49-3.86-1.53-2.44,0-4.62.79-6.55,2.36-.32.31-.47.77-.47,1.36v14.22c0,.71.21,1.21.65,1.5.43.29,1.06.54,1.89.74.47.12.82.25,1.03.38.22.14.32.32.32.56,0,.43-.39.65-1.18.65-1.02,0-1.87-.06-2.54-.18-.87-.08-1.61-.12-2.24-.12s-1.38.04-2.24.12c-.63.12-1.48.18-2.54.18-.79,0-1.18-.22-1.18-.65Z"></path><path class="cls-1" d="M297.63,132.44c-.2-.39-.51-1.28-.94-2.65l-.53-1.47c-.47-1.3-1.59-4.13-3.36-8.5l-2.36-5.78c-.28-.71-.7-1.35-1.27-1.92-.57-.57-1.15-.93-1.74-1.09-.39-.16-.67-.3-.82-.41-.16-.12-.24-.29-.24-.53,0-.35.39-.53,1.18-.53,1.02,0,1.79.06,2.3.18.63.08,1.3.12,2.01.12.67,0,1.36-.04,2.06-.12.59-.12,1.38-.18,2.36-.18.79,0,1.18.18,1.18.53,0,.28-.12.48-.35.62-.24.14-.57.29-1,.44-.39.16-.69.45-.88.88-.2.43-.3.94-.3,1.53,0,.63.08,1.16.24,1.59l4.66,12.39c.08.04.14.04.18,0l4.48-11.5c.31-.83.47-1.63.47-2.42,0-.75-.12-1.29-.35-1.62-.24-.33-.63-.62-1.18-.86-.55-.2-.91-.36-1.09-.5-.18-.14-.26-.32-.26-.56,0-.35.39-.53,1.18-.53.16,0,.59.04,1.3.12,1.53.12,2.54.18,3.01.18s1.24-.06,2.3-.18c.47-.08.86-.12,1.18-.12.79,0,1.18.18,1.18.53,0,.24-.1.43-.29.59-.2.16-.55.32-1.06.47-.63.2-1.3.67-2.01,1.42-.71.75-1.26,1.59-1.65,2.54l-4.6,11.09c-.32.79-.72,1.82-1.21,3.1-.49,1.28-.84,2.19-1.03,2.74-.08.24-.28.68-.59,1.33-.32.65-.55,1.09-.71,1.33h-.35c-.2,0-.55-.75-1.06-2.24Z"></path><path class="cls-1" d="M318.54,132.73c-1.63-1.06-2.9-2.57-3.81-4.51-.9-1.95-1.36-4.2-1.36-6.75,0-2.2.52-4.27,1.56-6.19,1.04-1.93,2.43-3.45,4.16-4.57,1.73-1.12,3.62-1.68,5.66-1.68,2.36,0,4.3.7,5.81,2.09,1.51,1.4,2.27,3.18,2.27,5.34,0,1.22-.59,1.83-1.77,1.83h-12.45c-.55,0-.94.15-1.15.44-.22.29-.33.88-.33,1.74,0,1.85.4,3.56,1.21,5.13.81,1.57,1.91,2.82,3.3,3.75,1.4.92,2.92,1.39,4.57,1.39,2.32,0,4.25-.88,5.78-2.65.24-.31.45-.47.65-.47.31,0,.47.2.47.59,0,.75-.35,1.57-1.06,2.48-.86,1.14-2.01,2.04-3.42,2.68s-2.91.97-4.48.97c-2.12,0-4-.53-5.63-1.59ZM324.12,116.45c1.85,0,3.3-.1,4.37-.3.31-.04.47-.47.47-1.3,0-1.14-.5-2.11-1.5-2.92-1-.81-2.19-1.21-3.57-1.21-.87,0-1.76.27-2.68.8-.92.53-1.68,1.19-2.27,1.98s-.88,1.57-.88,2.36c0,.39.24.59.71.59h5.37Z"></path><path class="cls-1" d="M340.87,133.71c-1.06-.37-1.97-.89-2.71-1.56-.32-.63-.53-2.2-.65-4.72,0-.35.26-.53.77-.53.43,0,.67.14.71.41.47,1.81,1.25,3.16,2.33,4.04,1.08.88,2.25,1.33,3.51,1.33,1.14,0,2.11-.38,2.92-1.15.81-.77,1.21-1.72,1.21-2.86,0-1.02-.34-1.92-1.03-2.68-.69-.77-1.94-1.72-3.75-2.86-2.05-1.26-3.49-2.43-4.34-3.51-.85-1.08-1.27-2.35-1.27-3.8,0-1.97.69-3.59,2.06-4.87,1.38-1.28,3.34-1.92,5.9-1.92,1.1,0,2.05.11,2.86.32.81.22,1.43.48,1.86.8.31.43.58,1.11.8,2.04.22.93.33,1.8.33,2.63,0,.28-.2.41-.59.41-.24,0-.47-.05-.71-.15-.24-.1-.37-.23-.41-.38-.55-1.34-1.21-2.34-1.98-3.01-.77-.67-1.7-1-2.8-1-1.02,0-1.91.32-2.66.94-.75.63-1.12,1.48-1.12,2.54,0,.94.29,1.76.86,2.45.57.69,1.64,1.48,3.22,2.39,2.48,1.42,4.23,2.68,5.25,3.8,1.02,1.12,1.53,2.55,1.53,4.28,0,2.12-.81,3.85-2.42,5.19-1.61,1.34-3.7,2.01-6.25,2.01-1.22,0-2.36-.19-3.42-.56Z"></path><path class="cls-1" d="M362.64,132.47c-1.06-1.2-1.59-2.94-1.59-5.22v-13.69c0-.35-.13-.59-.38-.71-.26-.12-.76-.18-1.5-.18h-.35c-.2,0-.37-.12-.5-.35-.14-.24-.21-.51-.21-.83,0-.08.05-.19.15-.32.1-.14.19-.25.26-.32,2.12-1.49,3.87-3.07,5.25-4.72.16-.2.32-.36.47-.5.16-.14.33-.21.53-.21.55,0,.81.22.77.65l-.29,2.65v.24c0,.35.12.59.35.71s.59.18,1.06.18h6.73c.16,0,.29.13.41.38.12.26.18.56.18.91s-.06.7-.18,1.03c-.12.33-.26.5-.41.5h-5.84c-1.06,0-1.72.08-1.98.24-.26.16-.38.63-.38,1.42v11.62c0,1.61.33,2.86,1,3.75s1.63,1.33,2.89,1.33c1.1,0,1.98-.08,2.63-.24.65-.16,1.23-.43,1.74-.83l.24-.12c.28,0,.41.28.41.83,0,.24-.35.66-1.06,1.27-.71.61-1.58,1.15-2.63,1.62-1.04.47-2.11.71-3.21.71-1.97,0-3.48-.6-4.54-1.8Z"></path><path class="cls-1" d="M377.15,132.97c0-.24.11-.41.33-.53.21-.12.56-.26,1.03-.41.86-.27,1.5-.54,1.92-.8.41-.26.62-.74.62-1.45v-12.68c0-1.26-.15-2.24-.44-2.95-.29-.71-.9-1.14-1.8-1.3-.35-.08-.53-.33-.53-.77,0-.39.16-.63.47-.71,1.06-.27,1.91-.56,2.54-.86.63-.29,1.36-.74,2.18-1.33l1.3-.88s.11-.04.21-.12c.1-.08.21-.12.33-.12.08,0,.16.04.24.12.08.08.12.18.12.3l-.12,1.24c-.04.32-.08.7-.12,1.15-.04.45-.06.91-.06,1.39,0,.39.04.63.12.71h.12c2.71-2.63,5.78-3.95,9.2-3.95,1.45,0,2.66.32,3.6.94.94.63,1.71,1.67,2.3,3.13h.18c3.07-2.71,6.27-4.07,9.62-4.07,1.81,0,3.24.82,4.31,2.45,1.06,1.63,1.59,3.55,1.59,5.75v12.57c0,.71.21,1.19.62,1.45.41.26,1.05.52,1.92.8.47.16.82.29,1.03.41.21.12.32.29.32.53s-.09.4-.27.5-.48.15-.91.15c-1.06,0-1.89-.06-2.48-.18-.79-.08-1.51-.12-2.18-.12-.71,0-1.46.04-2.24.12-.71.12-1.59.18-2.65.18-.79,0-1.18-.22-1.18-.65,0-.27.11-.47.32-.59.22-.12.56-.24,1.03-.35.83-.2,1.45-.44,1.89-.74.43-.29.65-.8.65-1.5v-12.39c0-1.45-.47-2.75-1.42-3.89-.94-1.14-2.05-1.71-3.3-1.71-2.09,0-3.8.53-5.13,1.59-1.1.87-1.65,2.28-1.65,4.25v12.15c0,.71.24,1.21.71,1.5s1.12.54,1.95.74c.9.2,1.36.51,1.36.94s-.39.65-1.18.65c-1.06,0-1.93-.06-2.6-.18-.86-.08-1.61-.12-2.24-.12-.71,0-1.45.04-2.24.12-.71.12-1.59.18-2.65.18-.79,0-1.18-.22-1.18-.65,0-.24.09-.4.26-.5.18-.1.37-.19.59-.27.22-.08.38-.14.5-.18.9-.27,1.56-.54,1.98-.8.41-.26.62-.74.62-1.45v-12.39c0-1.45-.47-2.75-1.42-3.89-.94-1.14-2.05-1.71-3.3-1.71-2.08,0-3.8.53-5.13,1.59-1.06.79-1.59,2.2-1.59,4.25v12.15c0,.71.21,1.19.62,1.45.41.26,1.05.52,1.92.8.12.04.3.1.56.18.25.08.45.18.59.29.14.12.21.28.21.47,0,.43-.39.65-1.18.65-1.02,0-1.87-.06-2.54-.18-.87-.08-1.61-.12-2.24-.12s-1.38.04-2.24.12c-.63.12-1.48.18-2.54.18-.79,0-1.18-.22-1.18-.65Z"></path><path class="cls-1" d="M429.75,132.73c-1.63-1.06-2.9-2.57-3.81-4.51-.9-1.95-1.36-4.2-1.36-6.75,0-2.2.52-4.27,1.56-6.19,1.04-1.93,2.43-3.45,4.16-4.57,1.73-1.12,3.62-1.68,5.66-1.68,2.36,0,4.3.7,5.81,2.09,1.51,1.4,2.27,3.18,2.27,5.34,0,1.22-.59,1.83-1.77,1.83h-12.45c-.55,0-.94.15-1.15.44-.22.29-.33.88-.33,1.74,0,1.85.4,3.56,1.21,5.13.81,1.57,1.91,2.82,3.3,3.75,1.4.92,2.92,1.39,4.57,1.39,2.32,0,4.25-.88,5.78-2.65.24-.31.45-.47.65-.47.31,0,.47.2.47.59,0,.75-.35,1.57-1.06,2.48-.86,1.14-2.01,2.04-3.42,2.68s-2.91.97-4.48.97c-2.12,0-4-.53-5.63-1.59ZM435.32,116.45c1.85,0,3.3-.1,4.37-.3.31-.04.47-.47.47-1.3,0-1.14-.5-2.11-1.5-2.92-1-.81-2.19-1.21-3.57-1.21-.87,0-1.76.27-2.68.8-.92.53-1.68,1.19-2.27,1.98s-.88,1.57-.88,2.36c0,.39.24.59.71.59h5.37Z"></path><path class="cls-1" d="M448.42,132.97c0-.27.1-.46.29-.56.2-.1.55-.23,1.06-.38.82-.2,1.45-.44,1.89-.74.43-.29.65-.8.65-1.5v-12.68c0-1.26-.14-2.22-.41-2.89-.28-.67-.86-1.12-1.77-1.36-.39-.12-.59-.37-.59-.77,0-.43.18-.67.53-.71,1.22-.31,2.25-.71,3.1-1.18.85-.47,1.78-1.08,2.8-1.83.27-.2.49-.29.65-.29.2,0,.29.14.29.41l-.12,1.24c-.04.32-.08.7-.12,1.15-.04.45-.06.91-.06,1.39,0,.39.04.63.12.71,1.42-1.34,2.89-2.33,4.42-2.98s3.22-.97,5.07-.97,3.47.79,4.75,2.36c1.28,1.57,1.92,3.52,1.92,5.84v12.57c0,.71.21,1.19.62,1.45.41.26,1.05.52,1.92.8.47.16.82.31,1.03.44.22.14.33.35.33.62,0,.35-.39.53-1.18.53-1.06,0-1.91-.06-2.54-.18-.79-.08-1.51-.12-2.18-.12-.63,0-1.38.04-2.24.12-.63.12-1.5.18-2.6.18-.79,0-1.18-.18-1.18-.53,0-.27.11-.48.32-.62.22-.14.56-.28,1.03-.44.86-.27,1.5-.54,1.92-.8.41-.26.62-.74.62-1.45v-12.39c0-1.69-.48-3.03-1.44-4.01-.96-.98-2.25-1.49-3.86-1.53-2.44,0-4.62.79-6.55,2.36-.32.31-.47.77-.47,1.36v14.22c0,.71.21,1.21.65,1.5.43.29,1.06.54,1.89.74.47.12.82.25,1.03.38.22.14.32.32.32.56,0,.43-.39.65-1.18.65-1.02,0-1.87-.06-2.54-.18-.87-.08-1.61-.12-2.24-.12s-1.38.04-2.24.12c-.63.12-1.48.18-2.54.18-.79,0-1.18-.22-1.18-.65Z"></path><path class="cls-1" d="M485.94,132.47c-1.06-1.2-1.59-2.94-1.59-5.22v-13.69c0-.35-.13-.59-.38-.71-.26-.12-.76-.18-1.5-.18h-.35c-.2,0-.37-.12-.5-.35-.14-.24-.21-.51-.21-.83,0-.08.05-.19.15-.32.1-.14.19-.25.26-.32,2.12-1.49,3.87-3.07,5.25-4.72.16-.2.32-.36.47-.5.16-.14.33-.21.53-.21.55,0,.81.22.77.65l-.29,2.65v.24c0,.35.12.59.35.71s.59.18,1.06.18h6.73c.16,0,.29.13.41.38.12.26.18.56.18.91s-.06.7-.18,1.03c-.12.33-.26.5-.41.5h-5.84c-1.06,0-1.72.08-1.98.24-.26.16-.38.63-.38,1.42v11.62c0,1.61.33,2.86,1,3.75s1.63,1.33,2.89,1.33c1.1,0,1.98-.08,2.63-.24.65-.16,1.23-.43,1.74-.83l.24-.12c.28,0,.41.28.41.83,0,.24-.35.66-1.06,1.27-.71.61-1.58,1.15-2.63,1.62-1.04.47-2.11.71-3.21.71-1.97,0-3.48-.6-4.54-1.8Z"></path><path class="cls-1" d="M504.11,133.71c-1.06-.37-1.97-.89-2.71-1.56-.32-.63-.53-2.2-.65-4.72,0-.35.26-.53.77-.53.43,0,.67.14.71.41.47,1.81,1.25,3.16,2.33,4.04,1.08.88,2.25,1.33,3.51,1.33,1.14,0,2.11-.38,2.92-1.15.81-.77,1.21-1.72,1.21-2.86,0-1.02-.34-1.92-1.03-2.68-.69-.77-1.94-1.72-3.75-2.86-2.05-1.26-3.49-2.43-4.34-3.51-.85-1.08-1.27-2.35-1.27-3.8,0-1.97.69-3.59,2.06-4.87,1.38-1.28,3.34-1.92,5.9-1.92,1.1,0,2.05.11,2.86.32.81.22,1.43.48,1.86.8.31.43.58,1.11.8,2.04.22.93.33,1.8.33,2.63,0,.28-.2.41-.59.41-.24,0-.47-.05-.71-.15-.24-.1-.37-.23-.41-.38-.55-1.34-1.21-2.34-1.98-3.01-.77-.67-1.7-1-2.8-1-1.02,0-1.91.32-2.66.94-.75.63-1.12,1.48-1.12,2.54,0,.94.29,1.76.86,2.45.57.69,1.64,1.48,3.22,2.39,2.48,1.42,4.23,2.68,5.25,3.8,1.02,1.12,1.53,2.55,1.53,4.28,0,2.12-.81,3.85-2.42,5.19-1.61,1.34-3.7,2.01-6.25,2.01-1.22,0-2.36-.19-3.42-.56Z"></path></g></svg>